<svg width="337" height="316" viewBox="0 0 337 316" fill="none" xmlns="http://www.w3.org/2000/svg">
<g clip-path="url(#clip0_201_2412)">
<path d="M184.637 250.425H107.169V310.034H184.637V250.425Z" fill="#EBEBEB"/>
<path d="M165.231 309.611C165.127 309.611 165.038 296.328 165.038 279.929C165.038 263.53 165.127 250.247 165.231 250.247C165.335 250.247 165.424 263.53 165.424 279.929C165.424 296.328 165.342 309.611 165.231 309.611Z" fill="#E0E0E0"/>
<path d="M178.069 296.469H172.134V303.17H178.069V296.469Z" fill="#FAFAFA"/>
<path d="M139.607 250.581H130.807V263.3H139.607V250.581Z" fill="#E0E0E0"/>
<path d="M139.607 297.137H130.807V309.856H139.607V297.137Z" fill="#E0E0E0"/>
<path d="M325.211 235.481H227.525V310.642H325.211V235.481Z" fill="#EBEBEB"/>
<path d="M300.739 310.108C300.627 310.108 300.546 293.36 300.546 272.694C300.546 252.028 300.627 235.273 300.739 235.273C300.851 235.273 300.932 252.028 300.932 272.694C300.932 293.36 300.843 310.108 300.739 310.108Z" fill="#E0E0E0"/>
<path d="M316.932 293.531H309.442V301.975H316.932V293.531Z" fill="#FAFAFA"/>
<path d="M268.428 235.674H257.33V251.709H268.428V235.674Z" fill="#E0E0E0"/>
<path d="M268.428 294.377H257.33V310.412H268.428V294.377Z" fill="#E0E0E0"/>
<path d="M43.5355 237.692C47.4926 235.659 52.1488 235.392 56.5373 236.111C58.8952 236.505 61.3498 237.21 62.9565 238.976C64.5631 240.742 64.8681 243.851 63.0234 245.372C61.93 246.27 60.3977 246.411 58.9771 246.396C55.5406 246.352 51.7249 245.751 48.9802 247.813C47.4182 248.986 46.3694 250.945 44.5173 251.524C42.6652 252.102 40.6197 251.012 39.6453 249.364C38.7515 247.646 38.5544 245.651 39.0949 243.792C39.3147 242.502 39.8297 241.281 40.5999 240.223C41.3702 239.166 42.3747 238.299 43.5355 237.692Z" fill="#EBEBEB"/>
<path d="M34.4832 220.246C36.9006 223.69 41.5941 222.554 43.7735 220.447C45.9528 218.339 46.8752 215.297 47.7157 212.396C49.6273 205.717 51.5612 198.787 50.1331 192.026C49.7902 189.978 48.8896 188.063 47.5297 186.491C46.8379 185.719 45.9555 185.14 44.9704 184.814C43.9852 184.487 42.9315 184.423 41.9139 184.628C39.5412 185.252 38.0684 187.596 37.0048 189.763C33.8729 196.267 32.2315 203.385 32.1997 210.6C32.1997 213.954 32.5865 217.479 34.4832 220.246Z" fill="#EBEBEB"/>
<path d="M27.841 225.188C30.4666 222.079 30.965 217.545 29.7972 213.657C28.6294 209.769 25.9889 206.452 22.9467 203.743C19.3697 200.567 15.2059 198.117 10.6886 196.531C8.94965 195.83 7.08006 195.512 5.2067 195.596C4.26628 195.651 3.35344 195.933 2.54727 196.419C1.7411 196.906 1.0659 197.581 0.580171 198.386C-0.743819 200.842 0.490913 203.818 1.82978 206.289C4.18918 210.572 6.88265 214.663 9.88529 218.525C12.2952 221.627 15.092 224.691 18.7441 226.094C22.3962 227.496 26.2418 227.333 28.1906 224.788" fill="#EBEBEB"/>
<path d="M34.3196 272.204C34.4484 271.692 34.5207 271.167 34.5353 270.639C34.6469 269.503 34.7882 268.071 34.9518 266.372C35.1647 264.267 35.4875 262.174 35.9188 260.102C36.4792 257.572 37.2403 255.091 38.1949 252.681C39.1373 250.289 40.4118 248.041 41.9809 246.003C43.2642 244.343 44.9001 242.987 46.7711 242.033C48.04 241.406 49.4009 240.986 50.8025 240.786C51.3298 240.764 51.8533 240.687 52.3645 240.556C51.8355 240.499 51.3018 240.499 50.7728 240.556C49.3179 240.667 47.8946 241.036 46.5702 241.647C44.602 242.564 42.8734 243.922 41.5197 245.617C39.8815 247.686 38.5605 249.987 37.5998 252.444C36.6395 254.88 35.8929 257.395 35.3684 259.961C34.9617 262.057 34.6835 264.175 34.5353 266.305C34.394 268.123 34.3494 269.592 34.3196 270.602C34.2589 271.134 34.2589 271.672 34.3196 272.204Z" fill="#E0E0E0"/>
<path d="M34.6097 268.917C34.6557 268.673 34.6707 268.423 34.6543 268.175C34.6543 267.626 34.6543 266.936 34.6543 266.097C34.6543 264.294 34.6543 261.682 34.751 258.462C34.9072 252.021 35.4948 245.105 36.5362 235.317C37.5552 226.123 38.9238 215.431 40.3594 208.478C40.6718 206.89 40.9767 205.472 41.2743 204.226C41.5495 202.972 41.7875 201.896 42.0181 201.027L42.509 199.009C42.5818 198.768 42.6242 198.519 42.6354 198.267C42.5219 198.483 42.4368 198.712 42.3825 198.95L41.7801 200.938C41.5123 201.807 41.2371 202.875 40.9247 204.114C40.6123 205.354 40.2478 206.778 39.9131 208.359C38.1255 216.582 36.7847 224.895 35.8965 233.262C34.8179 243.057 34.3345 251.976 34.2898 258.432C34.2526 261.66 34.2898 264.272 34.4014 266.075C34.4535 266.921 34.4981 267.611 34.5279 268.153C34.5218 268.41 34.5493 268.667 34.6097 268.917Z" fill="#E0E0E0"/>
<path d="M34.6543 251.717C34.7111 250.995 34.7111 250.271 34.6543 249.55C34.5725 248.155 34.3791 246.144 33.9923 243.673C33.5116 240.785 32.871 237.926 32.0733 235.11C31.1389 231.644 29.9378 228.255 28.4807 224.973C25.9855 218.922 22.4092 213.373 17.9259 208.596C17.1497 207.776 16.3224 207.005 15.449 206.289C15.0622 205.962 14.7052 205.643 14.3854 205.391L13.4259 204.73C12.8472 204.293 12.2355 203.901 11.5961 203.558C11.4919 203.699 14.192 205.287 17.5987 208.901C21.9293 213.719 25.4033 219.24 27.8707 225.226C29.298 228.488 30.5057 231.842 31.4857 235.265C32.4229 238.412 33.0477 241.306 33.5237 243.747C33.9998 246.188 34.2675 248.199 34.3865 249.565C34.4215 250.288 34.511 251.007 34.6543 251.717Z" fill="#E0E0E0"/>
<path d="M16.84 279.447L18.5656 303.059H48.9727L50.6984 279.447H16.84Z" fill="#EBEBEB"/>
<path d="M54.3282 270.142H13.9019V279.447H54.3282V270.142Z" fill="#EBEBEB"/>
<path d="M13.9019 302.161V304.736H15.7986H53.6588V302.161H13.9019Z" fill="#E0E0E0"/>
<path d="M17.6582 308.995L15.7986 304.454H52.2083L50.0364 308.995H17.6582Z" fill="#E0E0E0"/>
<path d="M50.1331 287.172C50.1331 287.172 50.0959 287.253 49.9918 287.387C49.8876 287.52 49.724 287.75 49.538 287.988L47.7678 290.251L47.6859 290.355L47.6116 290.251L43.2602 284.203H43.5131L39.2288 290.258L39.0949 290.451L38.9387 290.273L33.8584 284.24H34.156L33.8733 284.589L29.3286 290.273L29.1798 290.466L29.0088 290.288L24.7244 284.24H24.9698L19.6888 290.244L19.5995 290.347L19.5251 290.229L17.8739 287.461L17.4499 286.719C17.3532 286.556 17.3086 286.467 17.3234 286.459C17.3917 286.53 17.4493 286.61 17.4945 286.697C17.621 286.882 17.7772 287.112 17.9631 287.402C18.3871 288.062 18.9747 288.975 19.7036 290.125H19.54L24.7467 284.048L24.8806 283.899L24.9922 284.062L29.3212 290.088H29.0311L33.5609 284.396L33.8436 284.048L33.9849 283.862L34.1336 284.04L39.199 290.08H38.9164L43.2454 284.055L43.3718 283.884L43.4983 284.055C45.209 286.504 46.6669 288.574 47.7529 290.125H47.6041L49.4488 287.899L49.9471 287.327C50.0661 287.223 50.1257 287.172 50.1331 287.172Z" fill="#F5F5F5"/>
<path d="M51.1224 279.291C51.1224 279.395 43.5057 279.484 34.1039 279.484C24.7021 279.484 17.1077 279.395 17.1077 279.291C17.1077 279.187 24.7244 279.105 34.1188 279.105C43.5131 279.105 51.1224 279.187 51.1224 279.291Z" fill="#F5F5F5"/>
<path d="M264.418 11.5208L258.185 11.5545L258.353 42.4973L264.586 42.4637L264.418 11.5208Z" fill="#E0E0E0"/>
<path d="M220.326 11.6106L204.185 11.6978L204.278 28.7794L220.418 28.6923L220.326 11.6106Z" fill="#EBEBEB"/>
<path d="M236.391 11.5165L220.251 11.6036L220.344 28.6852L236.484 28.5981L236.391 11.5165Z" fill="#F5F5F5"/>
<path d="M204.214 16.4215C214.94 16.5105 225.696 16.4215 236.421 16.2731C236.467 16.2731 236.51 16.2551 236.542 16.2231C236.574 16.1911 236.592 16.1477 236.592 16.1024C236.592 16.0571 236.574 16.0137 236.542 15.9817C236.51 15.9497 236.467 15.9317 236.421 15.9317C225.696 15.8724 214.94 15.9317 204.214 16.1321C204.181 16.1395 204.152 16.1579 204.131 16.1842C204.11 16.2105 204.099 16.2431 204.099 16.2768C204.099 16.3104 204.11 16.343 204.131 16.3693C204.152 16.3956 204.181 16.414 204.214 16.4215Z" fill="#E0E0E0"/>
<path d="M223.452 28.4083L194.124 28.5666L194.199 42.4872L223.527 42.3288L223.452 28.4083Z" fill="#EBEBEB"/>
<path d="M252.638 28.2434L223.31 28.4017L223.385 42.3222L252.713 42.1639L252.638 28.2434Z" fill="#F5F5F5"/>
<path d="M194.136 32.4422C213.616 32.6648 233.171 32.4422 252.651 32.1603C252.692 32.1519 252.728 32.1301 252.754 32.0983C252.78 32.0665 252.794 32.0268 252.794 31.9859C252.794 31.9449 252.78 31.9052 252.754 31.8735C252.728 31.8417 252.692 31.8198 252.651 31.8115C233.164 31.715 213.616 31.7225 194.136 32.1528C194.097 32.1528 194.06 32.1681 194.033 32.1952C194.006 32.2224 193.991 32.2592 193.991 32.2975C193.991 32.3359 194.006 32.3727 194.033 32.3999C194.06 32.427 194.097 32.4422 194.136 32.4422Z" fill="#E0E0E0"/>
<path d="M296.797 42.4969H183.172V47.4835H296.797V42.4969Z" fill="#E0E0E0"/>
<path d="M206.386 44.8937H201.775V61.9088H206.386V44.8937Z" fill="#E0E0E0"/>
<path d="M275.241 44.8937H270.629V61.9088H275.241V44.8937Z" fill="#E0E0E0"/>
<path d="M270.499 -0.0136858L264.266 0.0199585L264.497 42.5756L270.73 42.542L270.499 -0.0136858Z" fill="#EBEBEB"/>
<path d="M280.241 7.91071L270.557 7.96298L270.744 42.4527L280.428 42.4005L280.241 7.91071Z" fill="#F5F5F5"/>
<path d="M280.18 14.5663C278.572 14.7334 276.954 14.7904 275.338 14.737C273.722 14.7907 272.104 14.7337 270.496 14.5663C273.715 14.3395 276.946 14.3395 280.165 14.5663H280.18Z" fill="#E0E0E0"/>
<path d="M280.18 13.1194C278.571 13.2815 276.954 13.336 275.338 13.2826C273.722 13.3363 272.104 13.2818 270.496 13.1194C273.715 12.8925 276.946 12.8925 280.165 13.1194H280.18Z" fill="#E0E0E0"/>
<path d="M280.18 37.221C278.572 37.388 276.954 37.445 275.338 37.3917C273.722 37.4453 272.104 37.3883 270.496 37.221C273.715 36.9941 276.946 36.9941 280.165 37.221H280.18Z" fill="#E0E0E0"/>
<path d="M280.18 35.774C278.571 35.9361 276.954 35.9907 275.338 35.9373C273.722 35.991 272.104 35.9364 270.496 35.774C273.715 35.5472 276.946 35.5472 280.165 35.774H280.18Z" fill="#E0E0E0"/>
<path d="M275.494 32.65C275.397 32.65 275.323 29.1698 275.323 24.8808C275.323 20.5917 275.397 17.1041 275.494 17.1041C275.591 17.1041 275.658 20.5843 275.658 24.8808C275.658 29.1772 275.583 32.65 275.494 32.65Z" fill="#E0E0E0"/>
<path d="M290.824 16.3918H280.284V42.4227H290.824V16.3918Z" fill="#EBEBEB"/>
<path d="M267.297 9.05295C268.287 9.05295 269.09 8.25228 269.09 7.26462C269.09 6.27695 268.287 5.47629 267.297 5.47629C266.307 5.47629 265.505 6.27695 265.505 7.26462C265.505 8.25228 266.307 9.05295 267.297 9.05295Z" fill="#E0E0E0"/>
<path d="M267.848 12.1844H266.739V37.503H267.848V12.1844Z" fill="#E0E0E0"/>
<path d="M328.565 310.234C328.565 310.338 257.077 310.427 168.905 310.427C80.7336 310.427 9.23817 310.338 9.23817 310.234C9.23817 310.13 80.7113 310.041 168.905 310.041C257.099 310.041 328.565 310.13 328.565 310.234Z" fill="#263238"/>
<path d="M93.9289 37.9037C97.441 42.1836 99.3409 47.5549 99.2992 53.0859C99.262 56.2099 98.6893 59.6679 100.512 62.2131C101.895 64.1424 104.424 65.1071 105.547 67.2071C106.901 69.7226 105.748 72.8985 106.581 75.6367C107.764 79.5102 112.309 81.1278 115.009 84.1554C116.16 85.4909 116.965 87.0875 117.354 88.8055C117.743 90.5234 117.704 92.3103 117.24 94.0097C116.744 95.6991 115.854 97.2471 114.643 98.5267C113.431 99.8063 111.933 100.781 110.27 101.371C108.489 102.07 106.502 102.038 104.744 101.282C102.922 100.369 101.769 98.5139 100.884 96.6959C99.0835 93.1193 83.337 73.7816 82.4444 69.8858" fill="#263238"/>
<path d="M82.4741 33.3475C76.0327 32.3087 69.8293 36.5754 67.1292 42.4895C64.4292 48.4036 64.3474 55.1414 64.154 61.6417C63.9606 68.142 63.492 74.9392 60.1671 80.5342C58.0547 84.0886 54.7819 87.2126 54.2687 91.3013C53.8075 94.9818 55.7043 98.692 55.0423 102.306C54.4993 105.482 52.067 108.242 52.1711 111.455C52.2827 115.329 56.277 118.245 60.1597 118.349C64.0424 118.453 67.6871 116.427 70.7367 114.015C75.6888 110.088 79.6543 105.062 82.3179 99.3376" fill="#263238"/>
<path d="M71.8227 48.7301C71.6115 47.1153 71.7276 45.4746 72.1639 43.9054C72.6003 42.3362 73.3481 40.8704 74.363 39.595C75.3779 38.3195 76.6392 37.2604 78.0721 36.4803C79.505 35.7003 81.0804 35.2154 82.7047 35.0542C89.2057 34.4012 95.0074 39.1948 96.0116 45.6358C96.8967 51.2753 97.6628 56.9668 97.648 59.0371C97.6033 65.2851 93.9289 67.7339 92.4413 68.4685C91.9105 68.6677 91.3592 68.8071 90.7974 68.884C90.792 68.8916 90.789 68.9007 90.789 68.91C90.789 68.9193 90.792 68.9284 90.7974 68.936L92.2256 76.0893C92.8801 80.7864 90.2768 84.9938 85.5833 85.6914C80.8898 86.3889 77.1633 82.8196 76.4195 78.1225L71.8227 48.7301Z" fill="#C68863"/>
<path d="M94.7471 48.374C94.6504 48.5224 93.8173 48.0846 92.7611 48.2478C91.7049 48.411 91.0057 49.0566 90.8718 48.9379C90.7379 48.8192 90.8718 48.6411 91.1991 48.3443C91.6049 47.9477 92.1252 47.6882 92.6867 47.6022C93.2363 47.5163 93.7991 47.6073 94.2933 47.8619C94.6578 48.092 94.7991 48.3072 94.7471 48.374Z" fill="#263238"/>
<path d="M85.3453 50.704C85.2411 50.8524 84.4081 50.4146 83.3518 50.5778C82.2956 50.7411 81.6039 51.3866 81.47 51.2753C81.3361 51.164 81.47 50.9785 81.7898 50.6817C82.1957 50.2852 82.716 50.0256 83.2775 49.9397C83.8279 49.855 84.391 49.9486 84.8841 50.2068C85.2486 50.4591 85.3973 50.6372 85.3453 50.704Z" fill="#263238"/>
<path d="M89.2577 56.3509C89.7889 56.09 90.3513 55.898 90.9313 55.7795C91.1916 55.7127 91.4445 55.6237 91.4594 55.4308C91.4376 55.1591 91.3338 54.9005 91.1619 54.6887L90.0462 52.7594C88.499 49.999 87.3312 47.7209 87.4428 47.6541C87.5544 47.5874 88.9305 49.7764 90.4181 52.5368L91.4892 54.4513C91.7088 54.7514 91.8142 55.1196 91.7867 55.4901C91.7635 55.5909 91.7171 55.6849 91.6513 55.7647C91.5855 55.8445 91.502 55.908 91.4074 55.9502C91.2623 56.0135 91.1099 56.0584 90.9536 56.0838C90.4018 56.2436 89.832 56.3333 89.2577 56.3509Z" fill="#263238"/>
<path d="M90.79 68.8915C90.79 68.8915 86.7511 69.8413 81.1725 67.5484C81.1725 67.5484 83.6047 72.6982 91.1693 70.8208L90.79 68.8915Z" fill="#C68863"/>
<path d="M84.7948 47.9435C84.7353 48.2478 83.6568 48.27 82.4369 48.604C81.2171 48.9379 80.265 49.4276 80.0642 49.1976C79.9675 49.0863 80.0642 48.7895 80.4658 48.4556C80.952 48.0283 81.5334 47.723 82.1617 47.5651C82.7773 47.3952 83.424 47.3698 84.051 47.4909C84.5568 47.6096 84.7948 47.7951 84.7948 47.9435Z" fill="#263238"/>
<path d="M93.8694 46.0068C93.7206 46.274 92.9545 46.1404 92.0768 46.2591C91.1991 46.3778 90.4776 46.6598 90.2693 46.4372C90.1801 46.3259 90.2693 46.0662 90.5445 45.7916C90.9403 45.4554 91.4269 45.2436 91.9432 45.1829C92.4594 45.1221 92.9821 45.2152 93.4454 45.4503C93.795 45.6729 93.9289 45.9104 93.8694 46.0068Z" fill="#263238"/>
<path d="M83.0543 52.0842C83.0716 52.1993 83.1115 52.3099 83.1717 52.4096C83.232 52.5093 83.3114 52.5962 83.4054 52.6651C83.4994 52.7341 83.6062 52.7838 83.7195 52.8115C83.8329 52.8391 83.9506 52.8441 84.0659 52.8262C84.1783 52.8134 84.287 52.7784 84.3856 52.723C84.4842 52.6677 84.5707 52.5932 84.6401 52.504C84.7094 52.4148 84.7601 52.3127 84.7892 52.2036C84.8184 52.0945 84.8253 51.9808 84.8097 51.869C84.768 51.6438 84.6395 51.444 84.4518 51.3122C84.2641 51.1804 84.0321 51.1272 83.8056 51.164C83.5844 51.1884 83.3816 51.2985 83.2411 51.4706C83.1005 51.6428 83.0335 51.8631 83.0543 52.0842Z" fill="#263238"/>
<path d="M92.4189 50.0064C92.4362 50.1215 92.4761 50.2322 92.5363 50.3319C92.5966 50.4316 92.676 50.5184 92.77 50.5873C92.864 50.6563 92.9708 50.7061 93.0841 50.7337C93.1975 50.7613 93.3152 50.7664 93.4305 50.7485C93.5422 50.7356 93.6502 50.7008 93.7483 50.6459C93.8464 50.591 93.9325 50.5173 94.0017 50.4289C94.0709 50.3405 94.1218 50.2392 94.1515 50.131C94.1811 50.0229 94.1889 49.9099 94.1743 49.7986C94.158 49.6831 94.1188 49.5719 94.0588 49.4717C93.9988 49.3715 93.9194 49.2843 93.8251 49.2152C93.7309 49.146 93.6237 49.0964 93.51 49.0692C93.3962 49.0419 93.2782 49.0377 93.1628 49.0566C93.0511 49.0694 92.943 49.1043 92.845 49.1592C92.7469 49.214 92.6608 49.2878 92.5916 49.3762C92.5223 49.4646 92.4714 49.5658 92.4418 49.674C92.4122 49.7822 92.4044 49.8952 92.4189 50.0064Z" fill="#263238"/>
<path d="M90.909 58.399C90.6171 58.3138 90.3046 58.3314 90.0242 58.449C89.7438 58.5666 89.5126 58.7769 89.3693 59.0445C89.2333 59.2947 89.1796 59.5811 89.2156 59.8634C89.2517 60.1457 89.3757 60.4095 89.5701 60.6177C89.7719 60.8163 90.0389 60.9355 90.3219 60.9532C90.6048 60.971 90.8847 60.886 91.1098 60.7141C91.3968 60.4535 91.5702 60.0914 91.5933 59.705C91.636 59.3501 91.5488 58.9917 91.3478 58.6958C91.2402 58.5555 91.091 58.4527 90.9213 58.4021C90.7517 58.3515 90.5704 58.3556 90.4032 58.4138" fill="#EB996E"/>
<path d="M95.1636 40.5899C94.5698 38.2332 93.0992 36.1903 91.0503 34.8761C89.3785 33.6856 87.3972 33.0027 85.3453 32.9097C83.2805 32.8313 81.2689 33.5732 79.7518 34.9726C78.6945 36.0547 78.1021 37.5056 78.1005 39.0167L78.2195 37.9779C77.9068 38.8206 77.9068 39.7471 78.2195 40.5899C78.398 41.0499 78.6063 41.5026 78.7923 41.9552C79.3314 43.2602 80.3245 44.3273 81.589 44.9605C82.1615 45.2617 82.8015 45.4124 83.4485 45.3983C83.7718 45.3907 84.0896 45.3131 84.3799 45.1709C84.6701 45.0287 84.9259 44.8252 85.1296 44.5746C85.5907 43.7672 85.7314 42.8166 85.5238 41.9107C86.0161 42.8038 86.7148 43.567 87.5618 44.1368C87.9954 44.4104 88.5103 44.5265 89.0197 44.4657C89.5291 44.4049 90.0019 44.1708 90.3586 43.8029C90.9611 43.0163 90.7156 41.8884 90.3586 40.9609C90.9371 41.8271 91.7458 42.5157 92.6942 42.9496C92.9438 43.0909 93.2201 43.179 93.5056 43.2084C93.7911 43.2378 94.0796 43.2078 94.3529 43.1202C94.5678 43.0133 94.7561 42.86 94.9041 42.6713C95.0521 42.4825 95.156 42.2633 95.2082 42.0294C95.2976 41.552 95.2823 41.0609 95.1636 40.5899Z" fill="#263238"/>
<path d="M89.8007 42.5563C89.7338 42.5563 89.7338 41.6732 89.4437 40.3301C89.0925 38.549 88.1836 36.925 86.8478 35.6924C86.1113 35.0334 85.2256 34.5624 84.2667 34.3196C83.4815 34.128 82.6635 34.1128 81.8717 34.2751C81.1408 34.454 80.443 34.747 79.8038 35.1433C79.9255 34.9716 80.0796 34.8254 80.2576 34.7129C80.7237 34.369 81.2513 34.1172 81.8121 33.9708C82.6462 33.7752 83.5145 33.7752 84.3486 33.9708C85.3723 34.215 86.32 34.7068 87.1081 35.403C88.5086 36.6837 89.4274 38.4042 89.7115 40.2782C89.8096 40.8343 89.8569 41.3981 89.8528 41.9626C89.8685 42.162 89.851 42.3627 89.8007 42.5563Z" fill="#455A64"/>
<path d="M158.432 129.116L129.796 117.785C129.796 117.785 115.142 98.6178 115.447 98.2468L105.16 109.481L120.111 129.672L154.751 137.761L171.115 137.894C169.88 131.594 158.432 129.116 158.432 129.116Z" fill="#C68863"/>
<path d="M96.0562 74.4197L92.1586 72.9356L75.3335 75.0653V78.0335L74.8575 78.0928C71.2281 78.8613 67.7469 80.2094 64.5482 82.085C61.5549 83.9091 59.1765 86.5843 57.7186 89.767C56.2606 92.9496 55.7897 96.4944 56.3663 99.9461C57.0506 104.191 58.3746 109.348 60.9333 112.331C65.8201 118.037 70.283 110.988 70.283 110.988C70.283 110.988 73.3475 117.963 73.169 121.265C73.0277 124.033 71.8004 129.791 71.4062 131.587C71.39 131.659 71.3886 131.733 71.4022 131.805C71.4157 131.878 71.4439 131.946 71.4849 132.007C71.526 132.069 71.5791 132.121 71.641 132.161C71.7029 132.201 71.7723 132.228 71.845 132.24L107.31 138.762L107.481 130.11L106.351 94.492L104.789 80.6677C104.789 80.6677 104.833 74.0784 96.0562 74.4197Z" fill="#E8505B"/>
<path d="M104.246 78.3823L117.776 97.8906L106.879 111.129L104.246 78.3823Z" fill="#E8505B"/>
<path d="M107.146 119.469C107.092 119.051 107.072 118.629 107.087 118.208C107.087 117.332 107.087 116.182 107.05 114.78C106.976 111.016 106.706 107.258 106.239 103.523C105.674 99.1447 104.826 95.2341 104.171 92.3921L103.39 89.0455C103.271 88.6432 103.189 88.2309 103.145 87.8137C103.306 88.2014 103.438 88.6008 103.539 89.0084C103.77 89.7504 104.082 90.9154 104.446 92.3179C105.403 95.9794 106.131 99.6968 106.626 103.449C107.106 107.199 107.342 110.976 107.332 114.757C107.332 116.241 107.332 117.377 107.251 118.193C107.248 118.62 107.213 119.047 107.146 119.469Z" fill="#263238"/>
<path d="M73.8459 89.7875C73.8459 89.8469 72.8194 89.832 71.1682 89.9211C66.873 90.1482 62.6371 91.0239 58.6051 92.5182C57.058 93.0896 56.1208 93.5126 56.091 93.4532C56.2825 93.3053 56.4926 93.1831 56.7159 93.0896C57.1249 92.867 57.7349 92.585 58.501 92.2659C62.5146 90.6124 66.8041 89.7264 71.1459 89.6539C71.9715 89.6539 72.6335 89.6539 73.1095 89.6985C73.3581 89.6904 73.6064 89.7204 73.8459 89.7875Z" fill="#FAFAFA"/>
<path d="M105.19 98.692C104.646 98.8892 104.078 99.014 103.502 99.063C102.128 99.261 100.745 99.3849 99.3587 99.4341C97.9697 99.4817 96.5791 99.452 95.1934 99.345C94.6169 99.336 94.0442 99.2512 93.49 99.0927C94.0616 99.0419 94.6366 99.0419 95.2082 99.0927C96.2719 99.0927 97.7298 99.0927 99.3439 99.0927C100.958 99.0927 102.416 98.9221 103.472 98.833C104.039 98.7341 104.614 98.687 105.19 98.692Z" fill="#FAFAFA"/>
<path d="M111.401 89.8765C110.585 90.8259 109.602 91.6182 108.5 92.214C107.464 92.9147 106.306 93.4179 105.086 93.6981C105.041 93.5942 106.574 92.956 108.299 91.8578C110.025 90.7596 111.327 89.7875 111.401 89.8765Z" fill="#FAFAFA"/>
<path d="M105.934 80.831C104.806 81.9262 103.464 82.7775 101.992 83.3317C100.57 84.0063 99.0213 84.3754 97.4471 84.4151C97.4471 84.2964 99.4926 83.9847 101.843 82.9829C104.194 81.9812 105.86 80.7346 105.934 80.831Z" fill="#FAFAFA"/>
<path d="M106.67 113.8C106.457 113.957 106.221 114.082 105.971 114.171C105.51 114.394 104.826 114.668 103.97 114.98C99.4767 116.601 94.709 117.332 89.9346 117.132C89.0272 117.132 88.2908 117.028 87.785 116.961C87.5325 116.942 87.2831 116.895 87.0412 116.82C87.0412 116.753 88.1643 116.82 90.0164 116.82C92.3789 116.842 94.7393 116.676 97.0752 116.323C99.4076 115.957 101.708 115.412 103.955 114.69C105.622 114.171 106.648 113.748 106.67 113.8Z" fill="#FAFAFA"/>
<path d="M106.946 123.862C106.946 123.862 106.841 123.936 106.633 124.04L105.689 124.493C104.87 124.879 103.658 125.376 102.141 125.977C100.623 126.578 98.786 127.142 96.7182 127.706C94.4708 128.302 92.1942 128.783 89.8974 129.146C87.5998 129.492 85.2861 129.723 82.9651 129.836C80.8229 129.917 78.889 129.91 77.2674 129.836C75.6459 129.761 74.3442 129.643 73.4442 129.524L72.4178 129.383C72.2956 129.377 72.1752 129.352 72.0607 129.309C72.1814 129.289 72.3045 129.289 72.4252 129.309L73.4591 129.376C74.3591 129.45 75.6906 129.524 77.2823 129.569C78.8741 129.613 80.8154 129.569 82.9427 129.494C85.0701 129.42 87.4056 129.146 89.8379 128.752C92.2702 128.359 94.5611 127.869 96.6289 127.342C98.6967 126.816 100.527 126.237 102.051 125.702C103.576 125.168 104.796 124.708 105.629 124.367L106.596 123.988C106.708 123.936 106.825 123.893 106.946 123.862Z" fill="#FAFAFA"/>
<path d="M41.6536 281.614L37.637 299.742L30.3402 313.143C30.2123 313.375 30.1341 313.63 30.1105 313.893C30.0869 314.157 30.1184 314.422 30.203 314.673C30.2876 314.923 30.4235 315.153 30.6021 315.349C30.7806 315.544 30.9979 315.7 31.2402 315.807C31.517 315.933 31.8201 315.992 32.1241 315.978C32.4281 315.963 32.7244 315.877 32.9882 315.725C36.3725 313.759 48.8686 306.465 49.0917 305.129C49.3446 303.578 54.6034 286.289 54.6034 286.289L41.6536 281.614Z" fill="#E8505B"/>
<g opacity="0.6">
<path d="M31.2402 315.807L49.4116 303.934L49.2256 304.676C49.0656 305.338 48.6722 305.92 48.1174 306.316C46.6297 307.385 42.4941 310.234 33.0402 315.74C32.7684 315.897 32.4622 315.985 32.1485 315.996C31.8348 316.008 31.523 315.943 31.2402 315.807Z" fill="white"/>
</g>
<g opacity="0.6">
<path d="M47.1132 297.189C46.8494 297.297 46.635 297.498 46.5114 297.755C46.3877 298.011 46.3636 298.304 46.4438 298.577C46.5431 298.842 46.7403 299.058 46.9948 299.182C47.2494 299.307 47.5419 299.329 47.8124 299.245C48.0934 299.129 48.3208 298.912 48.4502 298.638C48.5795 298.363 48.6014 298.05 48.5116 297.76C48.3799 297.498 48.1524 297.295 47.8757 297.195C47.5991 297.094 47.2944 297.102 47.0239 297.219" fill="white"/>
</g>
<path d="M37.2874 308.936C36.9922 308.266 36.5704 307.658 36.0452 307.147C35.4513 306.72 34.7791 306.412 34.0667 306.242C34.0667 306.19 34.3196 306.108 34.7584 306.153C35.3299 306.227 35.8682 306.463 36.3097 306.832C36.7513 307.202 37.0776 307.69 37.2502 308.238C37.3767 308.691 37.3395 308.936 37.2874 308.936Z" fill="#263238"/>
<path d="M35.4056 311.036C35.3014 311.095 34.8626 310.368 33.9923 309.871C33.4388 309.615 32.87 309.395 32.289 309.21C32.6089 309.105 32.9493 309.078 33.2818 309.131C33.6143 309.184 33.9293 309.315 34.2006 309.514C35.1899 310.086 35.5097 311.013 35.4056 311.036Z" fill="#263238"/>
<path d="M40.4486 306.465C39.8091 305.766 39.1206 305.114 38.3883 304.513C37.5794 304.023 36.7339 303.597 35.8593 303.237C36.8656 303.214 37.8468 303.551 38.6263 304.187C39.4846 304.707 40.1303 305.514 40.4486 306.465Z" fill="#263238"/>
<path d="M42.1296 301.018C42.0553 301.115 41.1552 300.454 39.8982 300.091C38.6412 299.727 37.5031 299.786 37.4957 299.66C38.3149 299.379 39.2067 299.392 40.0172 299.697C40.8527 299.882 41.5988 300.348 42.1296 301.018Z" fill="#263238"/>
<path d="M43.4462 295.727C42.7215 295.278 41.9381 294.931 41.1181 294.696C40.274 294.581 39.4183 294.581 38.5742 294.696C38.5742 294.651 38.8048 294.473 39.318 294.332C39.9438 294.163 40.6006 294.142 41.236 294.27C41.8714 294.399 42.4678 294.675 42.9776 295.074C43.3198 295.43 43.4834 295.69 43.4462 295.727Z" fill="#263238"/>
<path d="M41.4007 293.694C41.3955 293.459 41.4439 293.225 41.542 293.011C41.7559 292.4 42.0897 291.838 42.5239 291.357C42.8113 290.975 43.2164 290.699 43.6768 290.57C43.8317 290.54 43.9924 290.559 44.1355 290.626C44.2786 290.693 44.3967 290.803 44.4727 290.941C44.608 291.215 44.6397 291.529 44.5619 291.824C44.371 292.421 43.9777 292.932 43.4496 293.271C42.9215 293.609 42.2917 293.754 41.6685 293.679C41.0546 293.595 40.4799 293.33 40.0186 292.918C39.5572 292.505 39.2303 291.964 39.08 291.364C39.0409 291.214 39.0353 291.057 39.0636 290.904C39.0918 290.752 39.1533 290.607 39.2436 290.481C39.3464 290.361 39.4847 290.277 39.6385 290.241C39.7923 290.205 39.9536 290.219 40.099 290.281C40.5195 290.49 40.8783 290.804 41.1404 291.193C41.5359 291.702 41.8358 292.278 42.0255 292.893C42.1155 293.111 42.1586 293.347 42.152 293.583C41.8509 292.785 41.435 292.035 40.9172 291.357C40.6691 291.041 40.3508 290.787 39.9875 290.615C39.9078 290.58 39.8191 290.572 39.7346 290.592C39.6501 290.613 39.5744 290.659 39.5189 290.726C39.4669 290.813 39.4334 290.911 39.4207 291.011C39.4079 291.112 39.416 291.215 39.4445 291.312C39.5947 291.825 39.8889 292.284 40.2922 292.635C40.6956 292.986 41.1912 293.214 41.7205 293.293C42.2468 293.355 42.7783 293.235 43.2273 292.955C43.6763 292.674 44.0159 292.249 44.19 291.75C44.2622 291.551 44.2622 291.333 44.19 291.134C44.1473 291.058 44.0825 290.997 44.0041 290.958C43.9257 290.92 43.8375 290.906 43.7512 290.919C43.3643 291.031 43.0199 291.256 42.7619 291.564C42.1853 292.188 41.7244 292.909 41.4007 293.694Z" fill="#263238"/>
<g opacity="0.3">
<path d="M41.2148 283.58L40.3445 287.736L53.5026 289.91L54.6034 286.289L41.6834 281.614L41.2148 283.58Z" fill="black"/>
</g>
<path d="M100.489 288.322L99.3959 302.806C99.3959 302.806 113.796 308.743 113.856 311.473L85.5907 310.375L86.3345 287.735L100.489 288.322Z" fill="#E8505B"/>
<g opacity="0.6">
<path d="M90.7454 301.27C90.471 301.344 90.2332 301.515 90.0769 301.752C89.9206 301.988 89.8568 302.274 89.8974 302.554C89.96 302.83 90.1259 303.071 90.361 303.228C90.5961 303.385 90.8827 303.447 91.1619 303.4C91.4539 303.326 91.7075 303.146 91.8728 302.894C92.038 302.643 92.1028 302.339 92.0545 302.042C91.9605 301.76 91.7609 301.526 91.4975 301.387C91.2341 301.249 90.9273 301.218 90.6412 301.3" fill="white"/>
</g>
<g opacity="0.6">
<path d="M85.6205 310.383L85.7915 308.097L112.799 309.997C112.799 309.997 114.034 310.59 113.856 311.481L85.6205 310.383Z" fill="white"/>
</g>
<path d="M99.8645 302.68C99.8645 302.821 99.1579 302.858 98.4661 303.274C97.7744 303.689 97.3876 304.253 97.2612 304.194C97.1347 304.135 97.3727 303.348 98.2207 302.858C99.0686 302.369 99.8943 302.554 99.8645 302.68Z" fill="#263238"/>
<path d="M102.78 304.016C102.78 304.149 102.2 304.365 101.709 304.929C101.218 305.493 101.055 306.101 100.921 306.086C100.787 306.071 100.727 305.3 101.345 304.602C101.962 303.905 102.78 303.89 102.78 304.016Z" fill="#263238"/>
<path d="M104.32 307.622C104.194 307.622 104.03 306.947 104.409 306.212C104.789 305.478 105.451 305.196 105.503 305.315C105.555 305.433 105.146 305.819 104.841 306.428C104.536 307.036 104.461 307.607 104.32 307.622Z" fill="#263238"/>
<path d="M99.7455 299.356C99.6786 299.475 99.0538 299.259 98.2579 299.282C97.462 299.304 96.8595 299.527 96.7703 299.408C96.681 299.289 97.3058 298.822 98.2579 298.807C99.21 298.792 99.8125 299.245 99.7455 299.356Z" fill="#263238"/>
<g opacity="0.3">
<path d="M100.266 291.186L100.08 293.768L86.2081 293.108L86.2973 290.125L100.266 291.186Z" fill="black"/>
</g>
<path d="M99.9092 296.425C99.4413 296.533 98.953 296.512 98.4959 296.365C97.9812 296.255 97.4817 296.083 97.0083 295.853C96.7329 295.718 96.467 295.564 96.2124 295.393C96.0581 295.3 95.92 295.182 95.8033 295.045C95.7146 294.943 95.6628 294.815 95.656 294.68C95.6493 294.545 95.688 294.413 95.7661 294.303C95.8384 294.209 95.9322 294.133 96.0396 294.083C96.147 294.033 96.2649 294.009 96.3835 294.013C96.563 294.017 96.7409 294.047 96.9116 294.102C97.2083 294.188 97.497 294.3 97.7744 294.436C98.2441 294.668 98.6735 294.974 99.0463 295.341C99.6786 295.972 99.8868 296.499 99.8348 296.521C99.7827 296.544 99.4703 296.121 98.8232 295.594C98.4443 295.296 98.0295 295.047 97.5884 294.852C97.329 294.736 97.0603 294.641 96.7851 294.57C96.4876 294.481 96.2347 294.473 96.1529 294.57C96.0711 294.666 96.1529 294.637 96.1529 294.733C96.2454 294.827 96.3476 294.912 96.4578 294.985C97.0982 295.428 97.7998 295.776 98.5405 296.017C99.0064 296.118 99.4639 296.254 99.9092 296.425Z" fill="#263238"/>
<path d="M99.7232 296.618C99.4688 296.205 99.3565 295.72 99.4034 295.238C99.3989 294.715 99.4844 294.195 99.6562 293.701C99.7553 293.408 99.8875 293.127 100.05 292.863C100.132 292.678 100.261 292.518 100.424 292.398C100.587 292.278 100.779 292.203 100.98 292.18C101.105 292.189 101.225 292.233 101.326 292.306C101.427 292.38 101.506 292.48 101.553 292.596C101.616 292.766 101.658 292.943 101.679 293.123C101.725 293.438 101.725 293.758 101.679 294.073C101.58 294.597 101.353 295.089 101.017 295.505C100.437 296.247 99.8571 296.358 99.8496 296.306C99.8422 296.254 100.296 295.994 100.742 295.304C101.003 294.911 101.173 294.465 101.241 293.998C101.278 293.728 101.278 293.453 101.241 293.182C101.241 292.878 101.107 292.633 100.995 292.663C100.884 292.692 100.601 292.87 100.482 293.1C100.333 293.336 100.206 293.584 100.103 293.842C99.924 294.289 99.8112 294.759 99.7678 295.238C99.6711 296.076 99.7976 296.595 99.7232 296.618Z" fill="#263238"/>
<path d="M71.2574 132.084C71.2574 132.084 66.7945 132.284 63.8193 147.511C60.844 162.738 38.1577 286.14 38.1577 286.14L54.6034 286.288L85.6205 168.986L83.5601 289.939L100.266 291.208C100.266 291.208 112.807 157.432 112.911 149.648C113.06 139.942 107.474 130.125 107.474 130.125L71.2574 132.084Z" fill="#263238"/>
<path d="M93.8545 130.808C93.9586 130.808 92.2553 139.527 90.0462 150.234C87.837 160.942 85.9552 169.609 85.8511 169.587C85.7469 169.565 87.4577 160.868 89.6668 150.153C91.876 139.438 93.7206 130.785 93.8545 130.808Z" fill="#455A64"/>
<path d="M96.4207 132.975C96.4207 132.975 96.867 132.796 97.3727 133.257C97.5199 133.388 97.6367 133.549 97.715 133.73C97.7933 133.911 97.8314 134.106 97.8265 134.303C97.7987 134.547 97.7063 134.78 97.5587 134.977C97.4111 135.174 97.2137 135.328 96.9867 135.424C96.7596 135.52 96.5111 135.554 96.2666 135.523C96.022 135.491 95.7903 135.395 95.595 135.245C95.45 135.112 95.3357 134.948 95.26 134.766C95.1842 134.584 95.1488 134.388 95.1562 134.191C95.1562 133.509 95.6173 133.271 95.6248 133.316C95.4906 133.586 95.4218 133.883 95.4239 134.184C95.4492 134.489 95.5935 134.771 95.8256 134.971C95.9696 135.063 96.1339 135.12 96.3044 135.135C96.475 135.151 96.6468 135.125 96.8053 135.06C96.9638 134.996 97.1042 134.893 97.2147 134.763C97.3251 134.632 97.4023 134.477 97.4397 134.31C97.456 134.004 97.3519 133.703 97.1496 133.472C96.8149 133.026 96.4132 133.041 96.4207 132.975Z" fill="#455A64"/>
<path d="M95.7066 139.007C95.7066 138.963 96.1678 139.007 96.4504 139.623C96.5218 139.798 96.5548 139.985 96.5471 140.174C96.5394 140.362 96.4912 140.546 96.4058 140.714C96.279 140.916 96.0992 141.08 95.8858 141.187C95.6723 141.295 95.4335 141.342 95.1951 141.324C94.9567 141.305 94.728 141.222 94.5336 141.083C94.3392 140.945 94.1867 140.755 94.0925 140.536C94.0346 140.357 94.0159 140.167 94.0377 139.981C94.0595 139.794 94.1213 139.614 94.219 139.453C94.5686 138.896 95.0446 138.911 95.0297 138.955C95.0149 139 94.6801 139.104 94.4644 139.579C94.4088 139.71 94.3801 139.852 94.3801 139.994C94.3801 140.137 94.4088 140.278 94.4644 140.41C94.5414 140.558 94.655 140.684 94.7947 140.777C94.9343 140.869 95.0953 140.924 95.2622 140.937C95.4292 140.949 95.5966 140.919 95.7486 140.849C95.9006 140.779 96.0321 140.671 96.1306 140.536C96.2017 140.412 96.2469 140.276 96.2636 140.134C96.2802 139.992 96.2678 139.849 96.2273 139.712C96.0264 139.208 95.6768 139.059 95.7066 139.007Z" fill="#455A64"/>
<path d="M79.9452 133.13C79.9235 133.387 79.8581 133.638 79.7518 133.872C79.5226 134.552 79.2339 135.21 78.889 135.839C77.7513 137.937 76.1105 139.722 74.113 141.034C72.1155 142.345 69.8235 143.143 67.4416 143.356C66.7265 143.418 66.0072 143.418 65.292 143.356C65.04 143.348 64.7901 143.308 64.5482 143.237C64.5482 143.163 65.6714 143.289 67.4491 143.066C69.7692 142.778 71.991 141.958 73.9407 140.671C75.8904 139.383 77.5152 137.664 78.6881 135.646C79.5881 134.184 79.8782 133.108 79.9452 133.13Z" fill="#455A64"/>
<path d="M111.944 143.957C111.944 143.957 111.751 143.875 111.453 143.667C111.024 143.362 110.624 143.019 110.256 142.643C109.036 141.407 108.084 139.935 107.459 138.317C106.827 136.697 106.541 134.963 106.618 133.227C106.639 132.705 106.706 132.186 106.819 131.676C106.845 131.483 106.9 131.296 106.983 131.119C107.057 131.119 106.894 131.936 106.894 133.234C106.891 136.648 108.161 139.941 110.456 142.473C111.334 143.408 111.989 143.897 111.944 143.957Z" fill="#455A64"/>
<path d="M64.7119 102.758L72.0236 103.167C72.5377 105.213 73.227 107.211 74.0839 109.14C79.9675 98.9591 84.4973 85.3129 85.6577 79.8292C85.494 79.2801 85.3006 78.679 85.0552 77.9963C84.8097 77.3137 85.0106 75.7702 85.1444 74.9169C85.3453 73.6925 85.6874 72.0526 85.7916 71.2957C86.104 68.9731 86.4759 68.6095 87.2792 68.8766C88.38 69.2328 86.8255 75.3769 87.7329 75.5105C88.2164 75.5847 88.8114 73.4773 88.9825 71.7483C89.1536 70.0194 89.9346 64.6989 90.4701 64.3279C91.3107 63.8084 92.047 64.6247 91.8313 66.3462C91.6156 68.0678 91.3479 73.2918 92.2627 73.3586C93.1776 73.4254 93.9214 64.6099 93.9214 64.6099C93.9214 64.6099 93.7801 62.6954 94.8438 62.7399C96.7554 62.8215 95.2603 72.1194 95.0967 72.995C94.9777 73.6109 95.9744 73.737 96.0636 73.0543C96.1529 72.3716 96.6141 64.2388 98.5628 64.3056C100.05 64.3576 97.4025 71.9635 98.243 73.7296C99.0835 75.4957 99.6637 67.7413 101.092 67.8452C101.62 67.8823 102.014 67.9862 101.04 72.3791C100.089 75.8663 98.9491 79.2996 97.6256 82.6638C95.3942 94.8334 85.442 133.761 69.8814 126.637C61.1713 122.653 57.1101 102.892 57.1101 102.892L64.7119 102.758Z" fill="#C68863"/>
<path d="M97.6703 82.6935C97.6867 82.6023 97.7116 82.5129 97.7447 82.4264L98.005 81.6843C98.2504 80.9423 98.5926 79.9999 99.024 78.7161C99.4554 77.4324 99.991 75.8741 100.512 74.0338C100.787 73.1211 101.003 72.1268 101.211 71.0657C101.308 70.5314 101.412 69.9823 101.471 69.4183C101.497 69.1394 101.497 68.8587 101.471 68.5798C101.471 68.2904 101.404 68.053 101.181 68.0455C100.958 68.0381 100.787 68.1791 100.623 68.424C100.473 68.6858 100.348 68.9617 100.251 69.2476C100.043 69.8339 99.8794 70.4498 99.7158 71.0879C99.5521 71.7261 99.4034 72.3791 99.21 73.0469C99.1307 73.4144 98.979 73.7625 98.7637 74.0709C98.7107 74.1319 98.6408 74.1758 98.5628 74.1971C98.5137 74.2073 98.4629 74.2066 98.4141 74.1951C98.3652 74.1836 98.3195 74.1614 98.2802 74.1303C98.1942 74.0514 98.1257 73.9553 98.0794 73.8483C97.9999 73.669 97.9473 73.479 97.9232 73.2844C97.886 71.7879 98.0334 70.2926 98.362 68.8321C98.4885 68.0901 98.6224 67.348 98.7191 66.606C98.7734 66.2272 98.8057 65.8457 98.8157 65.4632C98.8157 65.1145 98.7637 64.6321 98.6149 64.5653C98.4662 64.4986 98.0794 64.7137 97.8711 65.0254C97.6879 65.3462 97.5431 65.6874 97.4397 66.042C97.1861 66.8171 96.9945 67.6112 96.8669 68.4166C96.7256 69.2328 96.6141 70.0639 96.5248 70.9098C96.4802 71.3328 96.4355 71.7558 96.3984 72.1861L96.3388 72.8243C96.3462 72.9615 96.3242 73.0986 96.2742 73.2266C96.2241 73.3546 96.1473 73.4704 96.0488 73.5663C95.9207 73.6609 95.7655 73.712 95.6062 73.712C95.4468 73.712 95.2917 73.6609 95.1636 73.5663C95.0924 73.5178 95.0319 73.4552 94.9859 73.3825C94.9398 73.3097 94.9092 73.2284 94.8958 73.1434C94.8846 73.0646 94.8846 72.9847 94.8958 72.9059V72.7501C94.9628 72.3197 95.0223 71.8819 95.0892 71.4515C95.2157 70.5759 95.3198 69.7003 95.4091 68.8098C95.4983 67.9194 95.5504 67.0215 95.5653 66.1236C95.6079 65.2351 95.5202 64.3452 95.3049 63.482C95.2478 63.2638 95.1129 63.0739 94.9256 62.9477C94.8366 62.9193 94.7409 62.919 94.6517 62.9469C94.5625 62.9748 94.4841 63.0295 94.4272 63.1035C94.1796 63.5565 94.0807 64.0756 94.1446 64.5876C93.9884 66.3314 93.795 68.0455 93.5421 69.73C93.4157 70.5685 93.2743 71.3996 93.0661 72.2307C93.014 72.431 92.9471 72.6388 92.8727 72.8466C92.8026 73.0968 92.6572 73.3196 92.4561 73.4847C92.3644 73.5297 92.2601 73.5424 92.1602 73.5209C92.0603 73.4993 91.9706 73.4447 91.9057 73.366C91.8201 73.267 91.7522 73.154 91.7049 73.0321C91.6278 72.8257 91.573 72.6118 91.5412 72.3939C91.3598 70.7796 91.3448 69.1509 91.4966 67.5335C91.6005 66.7789 91.6404 66.0168 91.6156 65.2554C91.5915 64.9304 91.4423 64.6272 91.1991 64.4095C91.1433 64.3743 91.0808 64.3509 91.0156 64.3406C90.9503 64.3304 90.8837 64.3337 90.8197 64.3501C90.7462 64.369 90.6759 64.3991 90.6115 64.4392C90.5656 64.4707 90.5295 64.5144 90.5073 64.5653C90.2611 65.2597 90.0915 65.9788 90.0015 66.7099C89.8528 67.4148 89.7338 68.1272 89.6148 68.8247C89.4958 69.5222 89.3991 70.2049 89.3172 70.8876C89.2354 71.5702 89.1759 72.2381 89.042 72.9059C88.9264 73.5584 88.7522 74.1991 88.5214 74.8204C88.4587 74.9779 88.3866 75.1315 88.3056 75.2805C88.2015 75.414 88.142 75.5996 87.8594 75.6886C87.787 75.7018 87.7124 75.6934 87.6449 75.6644C87.5774 75.6353 87.52 75.5869 87.48 75.5253C87.4283 75.4404 87.3906 75.3477 87.3684 75.2508C87.3289 75.0904 87.3065 74.9262 87.3015 74.761C87.3015 73.4921 87.48 72.3346 87.5395 71.2141C87.5879 70.6784 87.5879 70.1395 87.5395 69.6038C87.5023 69.3664 87.4279 69.0844 87.2866 69.0325C87.1934 68.9849 87.0901 68.9601 86.9854 68.9601C86.8806 68.9601 86.7774 68.9849 86.6841 69.0325C86.3747 69.3688 86.1817 69.7954 86.1337 70.2494C86.0296 70.7021 85.9775 71.1621 85.8957 71.5999C85.5833 73.3512 85.256 74.8575 85.0998 76.0967C85.0224 76.6382 85.0224 77.1878 85.0998 77.7292C85.2039 78.1744 85.3527 78.5752 85.442 78.8868C85.5312 79.1985 85.5982 79.4211 85.6502 79.6289C85.6788 79.7081 85.6987 79.7902 85.7097 79.8737C85.6644 79.7997 85.6294 79.7198 85.6056 79.6363C85.5461 79.4582 85.4568 79.2282 85.3527 78.9388C85.2486 78.6494 85.0924 78.2561 84.9659 77.7737C84.8869 77.2175 84.8869 76.653 84.9659 76.0967C85.0998 74.8427 85.3973 73.3437 85.7097 71.5851C85.7841 71.1473 85.8287 70.6872 85.9329 70.2123C85.9798 69.9607 86.0445 69.7128 86.1263 69.4703C86.2052 69.1985 86.3694 68.9592 86.5949 68.7876C86.7306 68.7179 86.8811 68.6816 87.0337 68.6816C87.1864 68.6816 87.3368 68.7179 87.4726 68.7876C87.8222 68.9879 87.8296 69.3218 87.8965 69.5816C87.9486 70.1394 87.9486 70.7008 87.8965 71.2586C87.837 72.3865 87.666 73.5663 87.6883 74.7685C87.6942 74.9106 87.7116 75.0521 87.7403 75.1914C87.7403 75.3324 87.8445 75.3918 87.8296 75.3621C87.8147 75.3324 87.9709 75.2359 88.0379 75.1246C88.1088 74.9903 88.1709 74.8515 88.2238 74.7091C88.444 74.1096 88.6084 73.491 88.7147 72.8614C88.8338 72.2158 88.8784 71.548 88.9676 70.8579C89.0569 70.1678 89.1536 69.4851 89.2652 68.7802C89.3767 68.0752 89.4958 67.3703 89.6371 66.6505C89.7624 65.8877 89.9719 65.1411 90.2619 64.4244C90.3213 64.3065 90.4112 64.2066 90.5222 64.135C90.6211 64.0809 90.7259 64.0385 90.8346 64.0088C90.9591 63.9707 91.0905 63.9609 91.2192 63.9802C91.3479 63.9994 91.4707 64.0472 91.5784 64.1201C91.7397 64.2714 91.8678 64.4543 91.9548 64.6573C92.0419 64.8604 92.0859 65.0792 92.0842 65.3C92.1401 65.7037 92.1401 66.1132 92.0842 66.5169C92.0396 66.8954 92.0098 67.259 91.9801 67.6745C91.8376 69.2553 91.8551 70.8463 92.0322 72.4236C92.0581 72.6114 92.1055 72.7957 92.1735 72.9727C92.1958 73.0445 92.2339 73.1104 92.2851 73.1656C92.2851 73.1656 92.2851 73.1656 92.3222 73.1656C92.3222 73.3363 92.3222 73.2027 92.3222 73.2324C92.3222 73.2621 92.3222 73.2324 92.3222 73.1731C92.4135 73.0481 92.4862 72.9106 92.538 72.7649C92.5975 72.5794 92.657 72.3865 92.709 72.1861C92.9099 71.3922 93.0512 70.5685 93.1776 69.7374C93.4231 68.0678 93.609 66.3537 93.7652 64.6173C93.6986 64.0056 93.8316 63.3888 94.1446 62.8586C94.2632 62.7062 94.4268 62.5948 94.6124 62.5402C94.7979 62.4856 94.9959 62.4905 95.1785 62.5544C95.3364 62.6383 95.4749 62.7543 95.5851 62.8949C95.6953 63.0354 95.7747 63.1975 95.8182 63.3706C96.06 64.2824 96.1579 65.2263 96.1083 66.1682C96.1083 67.0883 96.0264 67.9936 95.9446 68.8915C95.8628 69.7893 95.7512 70.6724 95.6248 71.548L95.4239 72.8614C95.3644 73.136 95.3793 73.1434 95.4611 73.225C95.5128 73.2598 95.5736 73.2784 95.6359 73.2784C95.6982 73.2784 95.7591 73.2598 95.8107 73.225C95.9074 73.1656 95.9149 73.0321 95.9372 72.7946L95.9967 72.149C95.9967 71.7187 96.0785 71.2957 96.1231 70.8653C96.2124 70.0194 96.3314 69.1734 96.4727 68.3498C96.6129 67.5223 96.8142 66.7063 97.0752 65.9084C97.2045 65.5041 97.3845 65.1177 97.6108 64.7583C97.736 64.5612 97.9006 64.3919 98.0942 64.2611C98.2013 64.1867 98.3241 64.138 98.4531 64.1187C98.5821 64.0994 98.7139 64.11 98.8381 64.1498C98.952 64.221 99.0476 64.3179 99.1173 64.4325C99.1871 64.5472 99.229 64.6765 99.2397 64.8102C99.2704 65.019 99.2828 65.23 99.2769 65.441C99.2715 65.8384 99.2392 66.2351 99.1802 66.6282C99.0761 67.4074 98.9348 68.1643 98.8083 68.9063C98.4819 70.3172 98.3271 71.7623 98.3471 73.2102C98.3626 73.3664 98.4027 73.5192 98.4662 73.6628C98.4884 73.7164 98.5185 73.7664 98.5554 73.8112C98.5554 73.8112 98.5554 73.8112 98.5554 73.7593C98.7193 73.5071 98.8446 73.232 98.9273 72.943C99.1207 72.2975 99.2695 71.637 99.4406 70.9989C99.595 70.3666 99.7812 69.7425 99.9984 69.1289C100.11 68.8298 100.25 68.5417 100.415 68.2681C100.508 68.1199 100.623 67.9872 100.757 67.8749C100.836 67.814 100.928 67.771 101.025 67.7487C101.118 67.7307 101.214 67.7307 101.308 67.7487C101.409 67.7581 101.507 67.7947 101.589 67.8548C101.672 67.9149 101.736 67.9962 101.776 68.0901C101.839 68.2458 101.872 68.4119 101.873 68.5798C101.878 68.88 101.861 69.1801 101.821 69.4777C101.754 70.0565 101.65 70.6056 101.538 71.1399C101.342 72.1414 101.093 73.1321 100.794 74.108C100.244 75.9483 99.686 77.5066 99.2248 78.7755C98.7637 80.0444 98.3843 81.0016 98.124 81.6843C97.9975 81.996 97.9008 82.2409 97.819 82.4264C97.7827 82.5222 97.7326 82.6121 97.6703 82.6935Z" fill="#C68863"/>
<path d="M57.0729 103.604C58.4861 108.576 61.2457 116.264 64.2135 124.382C64.3079 124.643 64.4778 124.87 64.7017 125.035C64.9257 125.2 65.1937 125.294 65.4717 125.307C65.7496 125.32 66.0251 125.25 66.2633 125.106C66.5014 124.963 66.6915 124.752 66.8094 124.5L74.0839 109.155C74.0839 109.155 72.336 96.5401 72.4847 96.9927C72.6335 97.4454 57.4671 98.6252 57.4671 98.6252L57.0729 103.604Z" fill="#E8505B"/>
<path d="M73.4591 101.133C73.4591 101.193 72.5591 101.46 71.1161 102.009C67.3559 103.43 63.8893 105.527 60.8886 108.198C59.7357 109.214 59.0663 109.904 59.0217 109.867C59.1319 109.668 59.2696 109.486 59.4308 109.326C59.8322 108.862 60.2567 108.418 60.7027 107.997C62.1641 106.586 63.7782 105.342 65.5152 104.287C67.2516 103.239 69.0972 102.383 71.0194 101.734C71.6004 101.536 72.1912 101.367 72.7897 101.23C73.0062 101.162 73.2322 101.13 73.4591 101.133Z" fill="#FAFAFA"/>
<path d="M76.3451 104.955C75.8728 104.484 75.4651 103.952 75.1327 103.374C74.261 102.025 73.5141 100.599 72.9012 99.115C72.2843 97.6285 71.8062 96.0884 71.4731 94.5143C71.3 93.8679 71.21 93.2021 71.2054 92.533C71.4258 93.1588 71.6047 93.7983 71.7409 94.4475C72.1372 95.9847 72.6341 97.4943 73.2285 98.9666C73.8421 100.433 74.5502 101.858 75.3484 103.233C75.7178 103.785 76.0507 104.36 76.3451 104.955Z" fill="#263238"/>
<path d="M81.2022 36.9761C79.9391 39.0505 79.1555 41.3797 78.9084 43.7942C78.6614 46.2087 78.9571 48.6479 79.7741 50.934C80.5179 52.9746 81.708 54.9856 81.4923 57.1523C81.2766 59.3191 79.5881 61.4562 80.1832 63.6007C80.5328 64.8696 81.6262 65.8269 82.0427 67.0586C82.5337 68.5427 82.0427 70.101 81.7898 71.6296C81.1948 75.518 82.437 79.4211 82.7494 83.3465C83.0618 87.272 82.0055 91.8504 78.4873 93.5645C77.4236 94.0839 76.0327 94.2323 75.1476 93.4384C74.0244 92.4366 74.3368 90.626 74.6418 89.1419C77.7212 74.301 68.2078 59.8163 70.3797 44.7973C70.7293 42.3931 72.0756 38.3118 73.8161 36.6348C75.5567 34.9578 80.3543 35.1507 81.9981 36.9316" fill="#263238"/>
<path d="M66.5491 80.0296C66.5491 80.0296 66.9954 79.4879 67.6648 78.4416C68.6073 76.955 69.2655 75.307 69.6061 73.5812C69.8345 72.391 69.912 71.1769 69.8367 69.9674C69.7066 68.5665 69.6545 67.1594 69.6805 65.7526C69.7238 64.9801 69.8689 64.2167 70.1119 63.482C70.3781 62.7228 70.7194 61.9919 71.131 61.3003C71.964 59.8979 73.0203 58.5919 73.9798 57.1894C74.9778 55.874 75.669 54.3529 76.003 52.7371C76.1706 51.2174 76.0851 49.6804 75.7501 48.1884C75.4623 46.8004 75.3499 45.382 75.4153 43.9662C75.5089 42.7326 75.7589 41.5158 76.1592 40.345C76.7349 38.6535 77.6285 37.0871 78.7923 35.7295C79.1035 35.359 79.4416 35.0117 79.8038 34.6906C79.9235 34.5706 80.0557 34.4636 80.1981 34.3715C80.1981 34.3715 79.6923 34.8613 78.9038 35.8556C77.8005 37.2274 76.9585 38.7892 76.4195 40.4637C76.0532 41.6163 75.8358 42.8107 75.7724 44.0181C75.7168 45.4078 75.8368 46.7989 76.1294 48.1587C76.4846 49.6878 76.5802 51.2655 76.4121 52.8262C76.0642 54.4889 75.3531 56.0547 74.3294 57.412C73.355 58.8293 72.3062 60.1205 71.488 61.4933C71.0856 62.1605 70.7516 62.8666 70.4913 63.6007C70.2567 64.3042 70.1142 65.035 70.0673 65.7749C70.0344 67.171 70.0741 68.568 70.1863 69.96C70.2559 71.2038 70.1608 72.4512 69.9037 73.6702C69.5342 75.4197 68.8268 77.0806 67.821 78.5603C67.5503 78.9456 67.2572 79.3148 66.9433 79.666C66.8208 79.7965 66.6891 79.918 66.5491 80.0296Z" fill="#455A64"/>
<path d="M59.5052 81.1352C59.5676 80.9632 59.6447 80.7969 59.7357 80.6381C59.9217 80.2893 60.1597 79.8218 60.4796 79.2504C61.1044 78.0335 62.0416 76.2823 62.9565 74.0561C64.0511 71.4385 64.6464 68.6401 64.7119 65.8046C64.7194 64.987 64.6572 64.1703 64.5259 63.3632C64.3995 62.5396 64.2061 61.7011 64.0871 60.8255C63.9299 59.9202 63.9476 58.9934 64.1391 58.0947C64.3907 57.1726 64.9079 56.3444 65.6268 55.7128C67.0251 54.4364 68.721 53.6128 69.5913 52.1213C70.3551 50.6436 70.8034 49.024 70.9078 47.3647C71.072 45.8453 71.4166 44.3508 71.9343 42.9125C73.1132 39.8267 75.217 37.1785 77.9592 35.3288C78.3946 35.0341 78.8494 34.7688 79.3204 34.5348C79.4796 34.444 79.6463 34.367 79.8187 34.3047C79.8187 34.3419 79.1567 34.6684 78.041 35.4549C76.4788 36.5668 75.1265 37.9461 74.0467 39.5287C73.3003 40.6139 72.693 41.788 72.2393 43.0238C71.7323 44.4623 71.405 45.9577 71.2649 47.4761C71.1623 49.1889 70.7038 50.8617 69.9186 52.3884C68.9665 53.9912 67.2185 54.8446 65.8871 56.0615C65.2086 56.6489 64.7194 57.4235 64.4813 58.2877C64.3041 59.1378 64.2865 60.0134 64.4292 60.87C64.5482 61.7233 64.7416 62.5618 64.8681 63.4078C64.9906 64.2331 65.0478 65.0668 65.0391 65.901C64.9393 68.7804 64.2879 71.6141 63.1201 74.249C62.3557 76.0289 61.4889 77.7632 60.5242 79.4434L59.7357 80.8013C59.6697 80.9197 59.5925 81.0315 59.5052 81.1352Z" fill="#455A64"/>
<path d="M305.596 290.815C305.628 290.707 305.67 290.603 305.723 290.503L306.147 289.605C306.656 288.444 307.069 287.243 307.381 286.014C308.2 282.823 308.49 277.948 307.277 272.16C306.618 269.004 305.758 265.894 304.704 262.847C303.61 259.545 302.346 256.043 301.312 252.251C300.141 248.297 299.577 244.189 299.638 240.066C299.794 235.755 301.074 231.451 302.48 227.17C303.885 222.888 305.336 218.688 305.767 214.473C306.253 210.417 305.435 206.312 303.432 202.749C301.572 199.321 299.229 196.397 297.481 193.362C295.845 190.552 294.639 187.513 293.903 184.346C292.848 179.756 292.769 174.996 293.673 170.374C294.003 168.684 294.502 167.031 295.16 165.439C295.142 165.553 295.112 165.665 295.071 165.773C294.997 166.003 294.9 166.315 294.781 166.715C294.41 167.935 294.104 169.173 293.866 170.426C293.036 175.022 293.16 179.74 294.231 184.287C294.979 187.416 296.19 190.417 297.823 193.191C299.571 196.16 301.929 199.128 303.826 202.564C305.876 206.199 306.717 210.39 306.228 214.533C305.797 218.822 304.332 223.044 302.933 227.326C301.535 231.607 300.263 235.859 300.099 240.096C300.04 244.177 300.592 248.244 301.736 252.162C302.755 255.931 304.004 259.434 305.083 262.751C306.132 265.814 306.98 268.942 307.619 272.115C308.795 277.948 308.46 282.875 307.619 286.073C307.288 287.306 306.845 288.505 306.295 289.657L305.827 290.54C305.656 290.718 305.596 290.815 305.596 290.815Z" fill="#263238"/>
<path d="M299.854 196.353C299.854 196.353 296.298 184.999 302.68 178.351C302.73 178.297 302.793 178.258 302.864 178.239C302.934 178.219 303.008 178.219 303.078 178.239C303.149 178.259 303.212 178.298 303.261 178.352C303.31 178.406 303.344 178.472 303.357 178.543C303.699 180.421 304.123 186.135 299.854 196.353Z" fill="#E8505B"/>
<path d="M301.989 182.135C301.982 182.839 301.902 183.54 301.751 184.228C301.52 185.675 301.245 187.366 300.94 189.236C300.635 191.106 300.375 192.806 300.144 194.245C300.079 194.948 299.952 195.643 299.765 196.323C299.7 195.618 299.722 194.908 299.832 194.208C299.943 192.91 300.174 191.129 300.501 189.17C300.828 187.211 301.163 185.459 301.438 184.176C301.547 183.478 301.731 182.793 301.989 182.135Z" fill="#263238"/>
<path d="M304.042 223.14C304.042 223.14 306.214 211.438 314.976 208.544C315.045 208.52 315.119 208.516 315.191 208.532C315.262 208.547 315.328 208.583 315.38 208.634C315.433 208.684 315.47 208.749 315.488 208.819C315.506 208.89 315.503 208.965 315.481 209.034C314.909 210.845 312.603 216.098 304.042 223.14Z" fill="#E8505B"/>
<path d="M312.588 211.565C312.252 212.183 311.854 212.765 311.398 213.301L308.333 217.352C307.188 218.837 306.161 220.239 305.276 221.404C304.891 221.994 304.455 222.55 303.975 223.066C304.246 222.413 304.596 221.795 305.016 221.226C305.76 220.135 306.771 218.666 307.991 217.085C309.211 215.505 310.319 214.117 311.167 213.108C311.584 212.544 312.06 212.027 312.588 211.565Z" fill="#263238"/>
<path d="M301.669 252.488C301.669 252.488 300.352 240.66 307.887 235.347C307.946 235.304 308.017 235.279 308.09 235.274C308.163 235.269 308.236 235.284 308.301 235.318C308.366 235.352 308.42 235.403 308.457 235.466C308.494 235.529 308.513 235.601 308.512 235.674C308.49 237.573 307.82 243.265 301.669 252.488Z" fill="#E8505B"/>
<path d="M306.452 238.939C306.311 239.629 306.099 240.303 305.819 240.95L304.064 245.713C303.417 247.494 302.822 249.105 302.323 250.477C302.133 251.153 301.884 251.811 301.58 252.444C301.654 251.74 301.811 251.048 302.048 250.381C302.413 249.127 302.978 247.413 303.67 245.558C304.361 243.703 305.031 242.033 305.544 240.838C305.781 240.176 306.085 239.539 306.452 238.939Z" fill="#263238"/>
<path d="M308.274 281.977C308.274 281.977 307.374 270.104 315.102 265.073C315.162 265.034 315.232 265.012 315.305 265.009C315.377 265.007 315.448 265.024 315.511 265.059C315.574 265.095 315.626 265.146 315.661 265.209C315.697 265.272 315.714 265.343 315.712 265.415C315.623 267.351 314.745 273.013 308.274 281.977Z" fill="#E8505B"/>
<path d="M313.57 268.62C313.399 269.304 313.162 269.97 312.863 270.609C312.305 271.96 311.651 273.577 310.937 275.299L309.025 280.003C308.804 280.669 308.525 281.315 308.192 281.933C308.282 281.232 308.462 280.547 308.728 279.892C309.137 278.653 309.762 276.968 310.52 275.136C311.279 273.303 312.008 271.655 312.573 270.483C312.831 269.825 313.165 269.2 313.57 268.62Z" fill="#263238"/>
<path d="M294.744 186.38C294.744 186.38 284.167 180.874 283.966 171.665C283.961 171.592 283.977 171.519 284.012 171.455C284.046 171.39 284.099 171.337 284.163 171.301C284.227 171.266 284.299 171.249 284.373 171.253C284.446 171.257 284.516 171.281 284.576 171.323C286.153 172.407 290.504 176.139 294.744 186.38Z" fill="#E8505B"/>
<path d="M286.16 174.826C286.652 175.331 287.093 175.883 287.477 176.473L290.452 180.584L293.427 184.688C293.877 185.228 294.278 185.806 294.625 186.417C294.083 185.963 293.596 185.447 293.174 184.881C292.341 183.886 291.233 182.462 290.073 180.851C288.912 179.241 287.901 177.75 287.194 176.651C286.78 176.085 286.433 175.472 286.16 174.826Z" fill="#263238"/>
<path d="M306.094 210.741C306.094 210.741 295.205 205.888 294.439 196.709C294.433 196.637 294.447 196.564 294.479 196.499C294.512 196.435 294.561 196.38 294.623 196.342C294.684 196.303 294.755 196.283 294.828 196.282C294.9 196.281 294.972 196.301 295.034 196.338C296.67 197.34 301.245 200.805 306.094 210.741Z" fill="#E8505B"/>
<path d="M296.819 199.759C297.348 200.228 297.824 200.753 298.24 201.324L301.461 205.25L304.696 209.16C305.183 209.67 305.621 210.224 306.005 210.815C305.432 210.383 304.913 209.885 304.458 209.331C303.566 208.381 302.375 207.031 301.118 205.487C299.861 203.944 298.76 202.519 297.987 201.48C297.541 200.947 297.15 200.37 296.819 199.759Z" fill="#263238"/>
<path d="M299.832 237.974C299.832 237.974 292.356 228.698 295.86 220.165C295.886 220.097 295.931 220.039 295.989 219.995C296.047 219.951 296.116 219.925 296.189 219.918C296.261 219.911 296.334 219.924 296.399 219.956C296.465 219.988 296.52 220.037 296.559 220.098C297.563 221.738 300.055 226.895 299.832 237.974Z" fill="#E8505B"/>
<path d="M296.603 223.957C296.854 224.614 297.036 225.295 297.146 225.99L298.225 230.954C298.634 232.802 299.006 234.479 299.318 235.904C299.523 236.579 299.66 237.272 299.727 237.974C299.405 237.341 299.156 236.674 298.984 235.985C298.619 234.731 298.18 233.017 297.764 231.043C297.347 229.069 297.02 227.333 296.804 226.049C296.662 225.361 296.595 224.659 296.603 223.957Z" fill="#263238"/>
<path d="M307.233 269.986C307.233 269.986 296.432 264.947 295.815 255.753C295.809 255.681 295.824 255.608 295.857 255.543C295.891 255.478 295.941 255.424 296.004 255.386C296.066 255.349 296.138 255.329 296.211 255.33C296.284 255.33 296.356 255.351 296.417 255.39C298.039 256.406 302.546 259.946 307.233 269.986Z" fill="#E8505B"/>
<path d="M298.151 258.818C298.667 259.299 299.133 259.831 299.542 260.406L302.695 264.383L305.864 268.353C306.343 268.87 306.772 269.432 307.143 270.03C306.593 269.593 306.094 269.095 305.656 268.546C304.778 267.589 303.61 266.216 302.375 264.658C301.141 263.1 300.07 261.653 299.318 260.591C298.86 260.049 298.468 259.453 298.151 258.818Z" fill="#263238"/>
<path d="M328.766 223.2C328.781 223.288 328.781 223.379 328.766 223.467C328.766 223.675 328.766 223.92 328.766 224.209C328.729 224.951 328.692 225.893 328.64 227.096C328.498 229.633 328.305 233.166 328.067 237.395C327.323 241.699 325.092 246.47 322.116 251.101C319.952 254.514 317.653 257.623 315.719 260.502C313.933 263.039 312.328 265.697 310.914 268.457C309.994 270.319 309.247 272.262 308.683 274.26C308.497 274.965 308.356 275.521 308.274 275.9C308.242 276.096 308.187 276.288 308.11 276.471C308.118 276.274 308.143 276.078 308.185 275.885C308.237 275.499 308.356 274.935 308.519 274.215C309.02 272.169 309.733 270.179 310.647 268.279C312.026 265.515 313.607 262.856 315.377 260.324C317.319 257.416 319.58 254.306 321.729 250.915C324.668 246.3 326.854 241.603 327.68 237.365C327.978 233.143 328.23 229.611 328.424 227.073C328.521 225.871 328.595 224.907 328.654 224.194C328.654 223.897 328.706 223.645 328.729 223.452C328.733 223.367 328.745 223.282 328.766 223.2Z" fill="#263238"/>
<path d="M322.325 250.262C322.325 250.262 326.899 239.272 321.142 232.075C321.097 232.017 321.037 231.973 320.969 231.947C320.901 231.921 320.826 231.915 320.755 231.929C320.683 231.942 320.616 231.976 320.563 232.025C320.509 232.075 320.47 232.138 320.45 232.208C319.937 234.048 319 239.681 322.325 250.262Z" fill="#E8505B"/>
<path d="M321.491 235.911C321.688 236.588 321.808 237.285 321.848 237.989C322.012 239.28 322.191 241.068 322.339 243.049C322.488 245.031 322.548 246.826 322.548 248.125C322.589 248.83 322.544 249.538 322.414 250.232C322.294 249.541 322.232 248.841 322.228 248.14C322.131 246.656 322.02 244.971 321.893 243.079C321.767 241.187 321.64 239.473 321.536 238.018C321.444 237.32 321.429 236.613 321.491 235.911Z" fill="#263238"/>
<g opacity="0.3">
<path d="M322.325 250.262C322.325 250.262 326.899 239.272 321.142 232.075C321.097 232.017 321.037 231.973 320.969 231.947C320.901 231.921 320.826 231.915 320.755 231.929C320.683 231.942 320.616 231.976 320.563 232.025C320.509 232.075 320.47 232.138 320.45 232.208C319.937 234.048 319 239.681 322.325 250.262Z" fill="black"/>
</g>
<path d="M308.147 276.738C308.147 276.738 311.814 265.422 305.492 258.714C305.443 258.661 305.38 258.622 305.31 258.602C305.241 258.582 305.167 258.581 305.097 258.6C305.027 258.619 304.963 258.658 304.914 258.71C304.864 258.763 304.83 258.829 304.815 258.9C304.458 260.77 303.975 266.476 308.147 276.738Z" fill="#E8505B"/>
<path d="M306.154 262.499C306.402 263.161 306.58 263.847 306.682 264.547C306.95 265.815 307.277 267.582 307.575 269.548C307.872 271.514 308.095 273.295 308.2 274.594C308.296 275.295 308.311 276.004 308.244 276.709C308.059 276.029 307.939 275.333 307.887 274.631C307.671 273.147 307.418 271.492 307.143 269.615C306.868 267.737 306.6 266.046 306.399 264.599C306.246 263.909 306.164 263.205 306.154 262.499Z" fill="#263238"/>
<g opacity="0.3">
<path d="M308.147 276.738C308.147 276.738 311.814 265.422 305.492 258.714C305.443 258.661 305.38 258.622 305.31 258.602C305.241 258.582 305.167 258.581 305.097 258.6C305.027 258.619 304.963 258.658 304.914 258.71C304.864 258.763 304.83 258.829 304.815 258.9C304.458 260.77 303.975 266.476 308.147 276.738Z" fill="black"/>
</g>
<path d="M328.149 236.839C328.149 236.839 337.922 230.034 336.948 220.855C336.942 220.782 336.915 220.713 336.871 220.654C336.828 220.596 336.769 220.551 336.701 220.524C336.633 220.497 336.559 220.489 336.487 220.502C336.415 220.515 336.348 220.547 336.293 220.595C334.858 221.872 330.997 226.138 328.149 236.839Z" fill="#E8505B"/>
<g opacity="0.3">
<path d="M328.149 236.839C328.149 236.839 337.922 230.034 336.948 220.855C336.942 220.782 336.915 220.713 336.871 220.654C336.828 220.596 336.769 220.551 336.701 220.524C336.633 220.497 336.559 220.489 336.487 220.502C336.415 220.515 336.348 220.547 336.293 220.595C334.858 221.872 330.997 226.138 328.149 236.839Z" fill="black"/>
</g>
<path d="M335.163 224.276C334.97 224.953 334.697 225.606 334.352 226.22C333.794 227.4 332.991 229.003 332.039 230.754C331.087 232.505 330.187 234.056 329.487 235.154C329.144 235.771 328.726 236.344 328.245 236.861C328.513 236.211 328.836 235.585 329.212 234.991C329.919 233.707 330.7 232.201 331.652 230.539C332.604 228.876 333.378 227.363 334.069 226.086C334.374 225.449 334.74 224.842 335.163 224.276Z" fill="#263238"/>
<path d="M312.09 265.519C312.09 265.519 323.872 263.686 327.033 255.034C327.059 254.965 327.066 254.891 327.052 254.819C327.039 254.747 327.005 254.681 326.956 254.627C326.906 254.573 326.843 254.534 326.772 254.514C326.702 254.494 326.627 254.494 326.557 254.514C324.72 255.034 319.394 257.178 312.09 265.519Z" fill="#E8505B"/>
<g opacity="0.3">
<path d="M312.09 265.519C312.09 265.519 323.872 263.686 327.033 255.034C327.059 254.965 327.066 254.891 327.052 254.819C327.039 254.747 327.005 254.681 326.956 254.627C326.906 254.573 326.843 254.534 326.772 254.514C326.702 254.494 326.627 254.494 326.557 254.514C324.72 255.034 319.394 257.178 312.09 265.519Z" fill="black"/>
</g>
<path d="M323.931 257.326C323.455 257.845 322.924 258.31 322.347 258.714C321.328 259.53 319.892 260.614 318.271 261.764C316.649 262.914 315.147 263.916 314.031 264.591C313.452 264.998 312.825 265.332 312.164 265.585C312.686 265.112 313.254 264.692 313.86 264.331L318.01 261.408L322.153 258.439C322.707 258.01 323.303 257.637 323.931 257.326Z" fill="#263238"/>
<path d="M300.843 287.157L297.407 310.234H318.829L316.054 287.157H300.843Z" fill="#134C13"/>
<path d="M316.91 294.303C316.91 294.429 313.042 294.525 308.274 294.525C303.506 294.525 299.631 294.429 299.631 294.303C302.506 294.083 305.391 294.008 308.274 294.08C311.154 294.008 314.037 294.083 316.91 294.303Z" fill="#E9F3E9"/>
<path d="M317.334 296.143C317.334 296.262 313.339 296.365 308.408 296.365C303.476 296.365 299.482 296.262 299.482 296.143C299.482 296.024 303.476 295.92 308.408 295.92C313.339 295.92 317.334 296.017 317.334 296.143Z" fill="#263238"/>
<path d="M234.034 63.2742C234.034 63.2742 233.833 63.2742 233.454 63.2742C232.886 63.2407 232.318 63.2407 231.75 63.2742C229.568 63.3983 227.423 63.9005 225.413 64.7583C222.219 66.0926 219.438 68.2518 217.357 71.0137C216.079 72.7383 215.128 74.6826 214.553 76.7497C213.904 79.1929 213.745 81.7397 214.085 84.2444C214.424 86.7491 215.256 89.1623 216.532 91.3457C217.231 92.5623 218.081 93.6866 219.061 94.6924C220.048 95.7627 221.204 96.6651 222.482 97.3637C223.792 98.104 225.277 98.4783 226.782 98.4471C228.329 98.4271 229.813 97.8287 230.94 96.7701C231.483 96.2009 231.908 95.5304 232.192 94.797C232.475 94.0636 232.611 93.2817 232.591 92.4959C232.581 90.8622 232.061 89.2721 231.103 87.9472C229.169 85.2387 226.045 83.4207 222.728 82.4412C219.278 81.4749 215.634 81.4238 212.158 82.2928C210.384 82.7497 208.675 83.4278 207.071 84.3112C205.451 85.223 203.979 86.3738 202.704 87.7246C202.379 88.0625 202.071 88.4167 201.782 88.7857L200.941 89.9136C200.425 90.7049 199.967 91.5333 199.573 92.392C198.775 94.129 198.229 95.9704 197.951 97.8609C197.411 101.637 197.926 105.489 199.439 108.992C200.882 112.419 203.404 115.284 206.624 117.154C208.177 118.049 209.915 118.576 211.704 118.698C213.46 118.796 215.206 118.378 216.725 117.495C218.234 116.662 219.427 115.359 220.124 113.785C220.754 112.233 220.781 110.503 220.199 108.932C219.618 107.401 218.655 106.042 217.402 104.985C216.193 103.94 214.798 103.132 213.289 102.603C210.35 101.678 207.205 101.623 204.237 102.447C201.456 103.198 198.902 104.617 196.798 106.58C194.882 108.411 193.425 110.665 192.544 113.162C190.991 117.492 191.059 122.236 192.737 126.519C194.046 129.718 196.156 132.529 198.866 134.681C200.566 136.049 202.465 137.149 204.497 137.946C205.196 138.213 205.732 138.406 206.104 138.51L206.654 138.688C206.654 138.688 206.461 138.651 206.089 138.547C205.717 138.443 205.174 138.28 204.467 138.02C202.411 137.248 200.488 136.159 198.77 134.792C196.022 132.653 193.875 129.841 192.536 126.63C190.824 122.306 190.734 117.51 192.283 113.125C193.18 110.595 194.655 108.309 196.59 106.446C198.726 104.449 201.317 103 204.14 102.224C207.174 101.38 210.388 101.431 213.393 102.373C214.945 102.913 216.381 103.741 217.625 104.814C218.923 105.91 219.922 107.317 220.526 108.903C221.141 110.556 221.115 112.38 220.452 114.015C219.72 115.653 218.475 117.01 216.904 117.881C215.328 118.798 213.519 119.236 211.697 119.143C209.849 119.015 208.054 118.472 206.446 117.555C203.159 115.654 200.58 112.74 199.097 109.251C197.544 105.684 197.013 101.756 197.565 97.9054C197.971 95.0134 199.012 92.2465 200.614 89.8023L201.47 88.6521C201.745 88.2588 202.102 87.9101 202.414 87.5687C203.717 86.1887 205.222 85.0129 206.877 84.0811C208.519 83.1792 210.268 82.4886 212.084 82.0257C215.622 81.143 219.33 81.1993 222.839 82.1889C226.231 83.1981 229.407 85.0458 231.408 87.8507C232.414 89.2318 232.96 90.8928 232.97 92.5998C233.005 94.2795 232.371 95.9044 231.207 97.1189C230.017 98.2333 228.451 98.861 226.819 98.8775C225.257 98.9091 223.715 98.5194 222.356 97.7496C221.05 97.0313 219.869 96.1066 218.86 95.0114C217.863 93.9869 217.001 92.8399 216.294 91.598C215.005 89.3743 214.169 86.9187 213.833 84.3721C213.498 81.8254 213.669 79.2376 214.338 76.7571C214.912 74.6321 215.88 72.6336 217.194 70.8653C219.31 68.0829 222.136 65.9177 225.376 64.595C227.406 63.757 229.569 63.2847 231.765 63.2C232.335 63.1587 232.906 63.1587 233.476 63.2C233.84 63.2519 234.034 63.2742 234.034 63.2742Z" fill="#263238"/>
<path d="M258.877 137.523H154.587V217.768H258.877V137.523Z" fill="#FF7F50"/>
<path d="M154.587 137.523L173.844 155.451H276.372L258.877 137.523H154.587Z" fill="#FF7F50"/>
<path d="M154.587 137.523L258.847 137.338H258.922L258.981 137.397L276.297 155.139L276.476 155.318L276.796 155.651H276.342L173.815 155.57H173.77L154.587 137.56L173.926 155.369H173.844L276.372 155.295L276.23 155.622L276.052 155.436L258.736 137.694L258.877 137.753L154.587 137.523Z" fill="#263238"/>
<path d="M185.909 174.529C185.368 174.549 184.856 174.781 184.484 175.174C184.112 175.566 183.909 176.089 183.92 176.629C183.93 177.17 184.152 177.684 184.539 178.063C184.925 178.441 185.445 178.653 185.987 178.653C186.529 178.653 187.049 178.441 187.435 178.063C187.822 177.684 188.044 177.17 188.055 176.629C188.065 176.089 187.862 175.566 187.49 175.174C187.118 174.781 186.606 174.549 186.065 174.529" fill="#263238"/>
<path d="M210.537 174.529C209.997 174.549 209.488 174.78 209.117 175.172C208.746 175.563 208.545 176.084 208.555 176.622C208.565 177.16 208.787 177.673 209.172 178.05C209.557 178.427 210.075 178.639 210.615 178.639C211.154 178.639 211.673 178.427 212.058 178.05C212.443 177.673 212.665 177.16 212.675 176.622C212.685 176.084 212.483 175.563 212.113 175.172C211.742 174.78 211.232 174.549 210.693 174.529" fill="#263238"/>
<path d="M210.693 193.733C210.267 192.092 209.568 190.535 208.625 189.125C207.58 187.616 206.242 186.332 204.69 185.348C202.812 184.104 200.622 183.413 198.369 183.352C196.115 183.292 193.891 183.865 191.949 185.007C190.341 185.897 188.931 187.103 187.806 188.554C186.786 189.896 186.004 191.401 185.492 193.006C185.494 192.887 185.514 192.77 185.552 192.657C185.62 192.323 185.709 191.993 185.82 191.67C186.23 190.479 186.825 189.36 187.583 188.353C188.704 186.839 190.13 185.575 191.77 184.643C193.762 183.451 196.053 182.851 198.375 182.914C200.697 182.977 202.953 183.701 204.876 184.999C206.46 186.017 207.815 187.351 208.856 188.917C209.558 189.965 210.09 191.117 210.433 192.331C210.524 192.66 210.596 192.995 210.648 193.332C210.689 193.462 210.704 193.598 210.693 193.733Z" fill="#263238"/>
<path opacity="0.5" d="M154.818 138.406L173.264 161.736H258.877V155.451H173.844L154.818 138.406Z" fill="black"/>
<path d="M238.311 217.59C238.199 217.59 238.117 203.632 238.117 186.424C238.117 169.216 238.199 155.258 238.311 155.258C238.422 155.258 238.504 169.216 238.504 186.424C238.504 203.632 238.415 217.59 238.311 217.59Z" fill="#263238"/>
<path d="M254.682 199.395H245.489V209.761H254.682V199.395Z" fill="#FF9973"/>
<path d="M154.587 137.523L133.173 155.451H154.587V137.523Z" fill="#E8505B"/>
<g opacity="0.4">
<path d="M154.587 137.523L133.173 155.451H154.587V137.523Z" fill="black"/>
</g>
<path d="M261.957 217.768H142.046V310.034H261.957V217.768Z" fill="#E8505B"/>
<path opacity="0.3" d="M261.957 217.768H142.046V310.034H261.957V217.768Z" fill="#FF7F50"/>
<path d="M231.906 309.381C231.802 309.381 231.713 288.819 231.713 263.456C231.713 238.093 231.802 217.523 231.906 217.523C232.011 217.523 232.1 238.085 232.1 263.456C232.1 288.826 232.018 309.381 231.906 309.381Z" fill="#263238"/>
<path d="M251.789 289.034H242.595V299.4H251.789V289.034Z" fill="#FF9973"/>
<path d="M192.246 218.005H178.627V237.692H192.246V218.005Z" fill="#AF4A2F"/>
<path d="M192.246 290.073H178.627V309.759H192.246V290.073Z" fill="#AF4A2F"/>
<path d="M260.908 217.768H260.603H259.695H256.237L243.503 217.835L201.477 217.887L159.451 217.835L146.71 217.768H143.251H142.351C142.25 217.778 142.148 217.778 142.046 217.768C142.148 217.761 142.25 217.761 142.351 217.768H143.251L146.71 217.731L159.451 217.672L201.477 217.612L243.503 217.672L256.237 217.731L259.695 217.768H260.603C260.704 217.762 260.806 217.762 260.908 217.768Z" fill="#263238"/>
<path d="M55.4067 57.8795L42.3528 54.6887H42.4495C39.0675 56.8094 35.1673 57.9643 31.1733 58.0279C28.8074 58.0372 26.4534 57.6946 24.1888 57.0113C20.2163 55.7477 16.6892 53.3763 14.0241 50.1771C11.3591 46.978 9.66739 43.0848 9.14892 38.9574C8.75019 35.8356 9.04603 32.6645 10.0154 29.6698C10.9847 26.675 12.6038 23.9302 14.7573 21.6306C15.8939 20.4033 17.1637 19.3058 18.5433 18.3582C19.2499 17.9204 19.9417 17.4752 20.6706 17.0893L21.7789 16.5624L22.3144 16.325L22.8872 16.1172C25.8764 14.9719 29.0787 14.4859 32.2741 14.6925C36.5508 14.9575 40.653 16.4803 44.063 19.0687C47.4731 21.6572 50.0382 25.1953 51.4348 29.2366C52.2072 31.4953 52.6139 33.8624 52.6397 36.2489C52.6665 40.2101 51.5929 44.1013 49.538 47.4909V47.3425L55.4067 57.8795L49.3372 47.4909V47.4389V47.3796C51.3329 44.0116 52.3622 40.1611 52.3125 36.2489C52.2748 33.901 51.8631 31.5741 51.0926 29.3553C50.238 26.9163 48.945 24.6532 47.2768 22.6769C44.3841 19.264 40.4979 16.8344 36.1579 15.7254C31.8179 14.6164 27.2394 14.883 23.0582 16.4882L22.493 16.6886L21.95 16.9483L20.864 17.4752C20.1202 17.8462 19.4731 18.284 18.7813 18.7144C17.4275 19.6436 16.1803 20.7186 15.0622 21.92C12.6415 24.561 10.9243 27.7663 10.0683 31.2416C9.21223 34.7169 9.24472 38.3511 10.1627 41.8106C11.0808 45.2702 12.855 48.4443 15.3225 51.0419C17.7901 53.6394 20.872 55.5772 24.2855 56.6774C26.512 57.3609 28.8289 57.7061 31.1584 57.7014C35.1045 57.6569 38.963 56.5354 42.3156 54.4587H42.3602H42.4123L55.4067 57.8795Z" fill="#134C13"/>
<path d="M29.0088 26.7136L29.7526 37.5326C29.7807 37.9616 29.9648 38.3655 30.2701 38.6688C30.5755 38.972 30.9812 39.1538 31.4113 39.18C31.8644 39.2075 32.3107 39.0604 32.6582 38.769C33.0056 38.4777 33.2276 38.0643 33.2783 37.6143L34.4609 26.7136C34.482 26.5187 34.4613 26.3215 34.4005 26.1351C34.3396 25.9487 34.2398 25.7773 34.1076 25.6322C33.9755 25.4871 33.8141 25.3715 33.6339 25.2932C33.4538 25.2148 33.2591 25.1754 33.0626 25.1776L30.3997 25.2295C30.2086 25.2291 30.0195 25.2679 29.8441 25.3436C29.6687 25.4193 29.5108 25.5302 29.3803 25.6694C29.2498 25.8087 29.1495 25.9733 29.0855 26.1529C29.0216 26.3326 28.9955 26.5234 29.0088 26.7136Z" fill="#FF7F50"/>
<path d="M34.275 45.2647C34.1109 45.7647 33.8018 46.2047 33.3868 46.5292C32.9718 46.8537 32.4695 47.0479 31.9437 47.0873C31.4179 47.1267 30.8922 47.0095 30.4333 46.7505C29.9743 46.4915 29.6028 46.1025 29.3657 45.6326C29.1286 45.1627 29.0367 44.6332 29.1017 44.1112C29.1666 43.5892 29.3854 43.0981 29.7303 42.7003C30.0753 42.3025 30.5309 42.0158 31.0394 41.8765C31.5478 41.7373 32.0863 41.7517 32.5865 41.9181C33.2541 42.1402 33.8064 42.6168 34.1228 43.2439C34.4392 43.871 34.4939 44.5975 34.275 45.2647Z" fill="#FF7F50"/>
</g>
<defs>
<clipPath id="clip0_201_2412">
<rect width="337" height="316" fill="white"/>
</clipPath>
</defs>
</svg>
