<svg id="Calque_1" data-name="Calque 1" xmlns="http://www.w3.org/2000/svg" viewBox="0 0 486 655.82"><polygon points="0 103.53 486 103.53 442 600.53 243 655.82 45.7 600.29 0 103.53" style="fill:#212121"/><path d="M134.75,325.76,165.4,627.23h97.66l-5.23-77.81H443.16l17.37-223.66ZM350.5,453.32H257.83V425.88H350.5Z" transform="translate(-54.64 -107.18)" style="fill:#54c3ea"/><path d="M94.08,107.23h18.07v82.69H94.08Zm8,67.67h56.19v15H102.12Z" transform="translate(-54.64 -107.18)" style="fill:#55c3ea"/><path d="M171.5,107.23h18.08v82.69H171.5Zm6.53,0h57.71v15H178Zm0,34.12h50.46v15H178Zm0,33.55h57.71v15H178Z" transform="translate(-54.64 -107.18)" style="fill:#55c3ea"/><path d="M279.67,107.23h11.47l36.67,82.69H308.36l-23-56.47-22.95,56.47H243Zm-19.06,54.42h50.45v15H260.61Z" transform="translate(-54.64 -107.18)" style="fill:#55c3ea"/><path d="M339.68,107.18h18.07v82.74H339.68Zm7.19,34.46h33.37a9.67,9.67,0,0,0,4.88-1.2,8.09,8.09,0,0,0,3.27-3.41,11.58,11.58,0,0,0,1.22-5.12,10.88,10.88,0,0,0-1.16-5.11,8.15,8.15,0,0,0-3.26-3.42,10,10,0,0,0-4.95-1.19H346.87v-15h34.82a30.11,30.11,0,0,1,13.92,3.07,22.33,22.33,0,0,1,9.3,8.67,27.24,27.24,0,0,1,0,26,22.36,22.36,0,0,1-9.33,8.67,30.19,30.19,0,0,1-13.89,3.07H346.87Zm20.18,12.45,19.33-2.61,25.85,38.44h-21.9Z" transform="translate(-54.64 -107.18)" style="fill:#55c3ea"/><path d="M427.73,107.23h22.09l35.68,63.35-1.58,1.48V107.23H501.2v82.63H479l-35.54-62.38L445,126v63.86H427.73Z" transform="translate(-54.64 -107.18)" style="fill:#55c3ea"/></svg>